<mxfile host="www.draw.io" modified="2020-02-29T13:17:03.612Z" agent="Mozilla/5.0 (Windows NT 10.0; Win64; x64) AppleWebKit/537.36 (KHTML, like Gecko) Chrome/80.0.3987.122 Safari/537.36" etag="vLmpdWC0FMlhfMiqg5mi" version="12.7.9" type="github">
  <diagram name="Page-1" id="e7e014a7-5840-1c2e-5031-d8a46d1fe8dd">
    <mxGraphModel dx="1822" dy="1194" grid="1" gridSize="10" guides="1" tooltips="1" connect="1" arrows="1" fold="1" page="0" pageScale="1" pageWidth="1169" pageHeight="826" background="#ffffff" math="0" shadow="0">
      <root>
        <mxCell id="0" />
        <mxCell id="1" parent="0" />
        <mxCell id="jIY0R9k1WC5agwst_tWj-40" value="" style="edgeStyle=orthogonalEdgeStyle;rounded=0;orthogonalLoop=1;jettySize=auto;html=1;startArrow=block;startFill=1;endArrow=block;endFill=1;" edge="1" parent="1" source="jIY0R9k1WC5agwst_tWj-2" target="jIY0R9k1WC5agwst_tWj-36">
          <mxGeometry relative="1" as="geometry" />
        </mxCell>
        <mxCell id="jIY0R9k1WC5agwst_tWj-41" value="m" style="text;html=1;align=center;verticalAlign=middle;resizable=0;points=[];labelBackgroundColor=#ffffff;" vertex="1" connectable="0" parent="jIY0R9k1WC5agwst_tWj-40">
          <mxGeometry x="0.7795" y="1" relative="1" as="geometry">
            <mxPoint x="4" y="-14" as="offset" />
          </mxGeometry>
        </mxCell>
        <mxCell id="jIY0R9k1WC5agwst_tWj-42" value="1" style="text;html=1;align=center;verticalAlign=middle;resizable=0;points=[];labelBackgroundColor=#ffffff;" vertex="1" connectable="0" parent="jIY0R9k1WC5agwst_tWj-40">
          <mxGeometry x="-0.8769" y="2" relative="1" as="geometry">
            <mxPoint x="-7" y="14" as="offset" />
          </mxGeometry>
        </mxCell>
        <object label="Account" id="jIY0R9k1WC5agwst_tWj-2">
          <mxCell style="swimlane;fontStyle=1;align=center;verticalAlign=top;childLayout=stackLayout;horizontal=1;startSize=26;horizontalStack=0;resizeParent=1;resizeParentMax=0;resizeLast=0;collapsible=1;marginBottom=0;" vertex="1" parent="1">
            <mxGeometry x="20" y="-260" width="250" height="212" as="geometry">
              <mxRectangle x="425" y="120" width="100" height="26" as="alternateBounds" />
            </mxGeometry>
          </mxCell>
        </object>
        <mxCell id="jIY0R9k1WC5agwst_tWj-3" value="- accName : str&#xa;- accPW : str&#xa;- accStats : Stats" style="text;strokeColor=none;fillColor=none;align=left;verticalAlign=top;spacingLeft=4;spacingRight=4;overflow=hidden;rotatable=0;points=[[0,0.5],[1,0.5]];portConstraint=eastwest;" vertex="1" parent="jIY0R9k1WC5agwst_tWj-2">
          <mxGeometry y="26" width="250" height="104" as="geometry" />
        </mxCell>
        <mxCell id="jIY0R9k1WC5agwst_tWj-4" value="" style="line;strokeWidth=1;fillColor=none;align=left;verticalAlign=middle;spacingTop=-1;spacingLeft=3;spacingRight=3;rotatable=0;labelPosition=right;points=[];portConstraint=eastwest;" vertex="1" parent="jIY0R9k1WC5agwst_tWj-2">
          <mxGeometry y="130" width="250" height="8" as="geometry" />
        </mxCell>
        <mxCell id="jIY0R9k1WC5agwst_tWj-5" value="+ login(accName : str, accPW : str) : bool" style="text;strokeColor=none;fillColor=none;align=left;verticalAlign=top;spacingLeft=4;spacingRight=4;overflow=hidden;rotatable=0;points=[[0,0.5],[1,0.5]];portConstraint=eastwest;" vertex="1" parent="jIY0R9k1WC5agwst_tWj-2">
          <mxGeometry y="138" width="250" height="22" as="geometry" />
        </mxCell>
        <mxCell id="jIY0R9k1WC5agwst_tWj-49" value="+ getStats() : bool" style="text;strokeColor=none;fillColor=none;align=left;verticalAlign=top;spacingLeft=4;spacingRight=4;overflow=hidden;rotatable=0;points=[[0,0.5],[1,0.5]];portConstraint=eastwest;" vertex="1" parent="jIY0R9k1WC5agwst_tWj-2">
          <mxGeometry y="160" width="250" height="52" as="geometry" />
        </mxCell>
        <mxCell id="jIY0R9k1WC5agwst_tWj-47" value="1" style="edgeStyle=orthogonalEdgeStyle;rounded=0;orthogonalLoop=1;jettySize=auto;html=1;startArrow=block;startFill=1;endArrow=block;endFill=1;" edge="1" parent="1" source="jIY0R9k1WC5agwst_tWj-36" target="jIY0R9k1WC5agwst_tWj-51">
          <mxGeometry x="-0.6" relative="1" as="geometry">
            <mxPoint as="offset" />
          </mxGeometry>
        </mxCell>
        <mxCell id="jIY0R9k1WC5agwst_tWj-48" value="m" style="text;html=1;align=center;verticalAlign=middle;resizable=0;points=[];labelBackgroundColor=#ffffff;" vertex="1" connectable="0" parent="jIY0R9k1WC5agwst_tWj-47">
          <mxGeometry x="0.6" y="-1" relative="1" as="geometry">
            <mxPoint as="offset" />
          </mxGeometry>
        </mxCell>
        <object label="Planet" id="jIY0R9k1WC5agwst_tWj-36">
          <mxCell style="swimlane;fontStyle=1;align=center;verticalAlign=top;childLayout=stackLayout;horizontal=1;startSize=26;horizontalStack=0;resizeParent=1;resizeParentMax=0;resizeLast=0;collapsible=1;marginBottom=0;" vertex="1" parent="1">
            <mxGeometry x="20" width="250" height="210" as="geometry">
              <mxRectangle x="425" y="120" width="100" height="26" as="alternateBounds" />
            </mxGeometry>
          </mxCell>
        </object>
        <mxCell id="jIY0R9k1WC5agwst_tWj-37" value="- Felder : int&#xa;- Felder_bebaut : int&#xa;- Temperatur : range (?)&#xa;- Energie" style="text;strokeColor=none;fillColor=none;align=left;verticalAlign=top;spacingLeft=4;spacingRight=4;overflow=hidden;rotatable=0;points=[[0,0.5],[1,0.5]];portConstraint=eastwest;" vertex="1" parent="jIY0R9k1WC5agwst_tWj-36">
          <mxGeometry y="26" width="250" height="104" as="geometry" />
        </mxCell>
        <mxCell id="jIY0R9k1WC5agwst_tWj-38" value="" style="line;strokeWidth=1;fillColor=none;align=left;verticalAlign=middle;spacingTop=-1;spacingLeft=3;spacingRight=3;rotatable=0;labelPosition=right;points=[];portConstraint=eastwest;" vertex="1" parent="jIY0R9k1WC5agwst_tWj-36">
          <mxGeometry y="130" width="250" height="8" as="geometry" />
        </mxCell>
        <mxCell id="jIY0R9k1WC5agwst_tWj-39" value="+ getInformation() : bool&#xa;+ getFarmTarget() : ?&#xa;+ chkWirdPlanetAngegriffen() : bool&#xa;+ Sicherheitsprotokoll : bool&#xa;" style="text;strokeColor=none;fillColor=none;align=left;verticalAlign=top;spacingLeft=4;spacingRight=4;overflow=hidden;rotatable=0;points=[[0,0.5],[1,0.5]];portConstraint=eastwest;" vertex="1" parent="jIY0R9k1WC5agwst_tWj-36">
          <mxGeometry y="138" width="250" height="72" as="geometry" />
        </mxCell>
        <mxCell id="jIY0R9k1WC5agwst_tWj-61" value="" style="edgeStyle=orthogonalEdgeStyle;rounded=0;orthogonalLoop=1;jettySize=auto;html=1;startArrow=block;startFill=0;endArrow=none;endFill=0;" edge="1" parent="1" source="jIY0R9k1WC5agwst_tWj-51" target="jIY0R9k1WC5agwst_tWj-57">
          <mxGeometry relative="1" as="geometry">
            <Array as="points">
              <mxPoint x="620" y="540" />
              <mxPoint x="735" y="540" />
            </Array>
          </mxGeometry>
        </mxCell>
        <object label="GebÃ¤ude" id="jIY0R9k1WC5agwst_tWj-51">
          <mxCell style="swimlane;fontStyle=1;align=center;verticalAlign=top;childLayout=stackLayout;horizontal=1;startSize=26;horizontalStack=0;resizeParent=1;resizeParentMax=0;resizeLast=0;collapsible=1;marginBottom=0;" vertex="1" parent="1">
            <mxGeometry x="490" y="244" width="250" height="242" as="geometry">
              <mxRectangle x="425" y="120" width="100" height="26" as="alternateBounds" />
            </mxGeometry>
          </mxCell>
        </object>
        <mxCell id="jIY0R9k1WC5agwst_tWj-52" value="- level : int&#xa;- Energieverbrauch : int&#xa;- kostenMetall : int&#xa;- kostenKristall : int&#xa;- kostenDeut : int&#xa;- kostenEnergie : int&#xa;- pfad : str" style="text;strokeColor=none;fillColor=none;align=left;verticalAlign=top;spacingLeft=4;spacingRight=4;overflow=hidden;rotatable=0;points=[[0,0.5],[1,0.5]];portConstraint=eastwest;" vertex="1" parent="jIY0R9k1WC5agwst_tWj-51">
          <mxGeometry y="26" width="250" height="104" as="geometry" />
        </mxCell>
        <mxCell id="jIY0R9k1WC5agwst_tWj-77" value="" style="line;strokeWidth=1;fillColor=none;align=left;verticalAlign=middle;spacingTop=-1;spacingLeft=3;spacingRight=3;rotatable=0;labelPosition=right;points=[];portConstraint=eastwest;" vertex="1" parent="jIY0R9k1WC5agwst_tWj-51">
          <mxGeometry y="130" width="250" height="8" as="geometry" />
        </mxCell>
        <mxCell id="jIY0R9k1WC5agwst_tWj-75" value="+ ausbauen() : bool" style="text;strokeColor=none;fillColor=none;align=left;verticalAlign=top;spacingLeft=4;spacingRight=4;overflow=hidden;rotatable=0;points=[[0,0.5],[1,0.5]];portConstraint=eastwest;" vertex="1" parent="jIY0R9k1WC5agwst_tWj-51">
          <mxGeometry y="138" width="250" height="104" as="geometry" />
        </mxCell>
        <object label="Versorgung" id="jIY0R9k1WC5agwst_tWj-57">
          <mxCell style="swimlane;fontStyle=1;align=center;verticalAlign=top;childLayout=stackLayout;horizontal=1;startSize=26;horizontalStack=0;resizeParent=1;resizeParentMax=0;resizeLast=0;collapsible=1;marginBottom=0;" vertex="1" parent="1">
            <mxGeometry x="590" y="560" width="250" height="170" as="geometry">
              <mxRectangle x="425" y="120" width="100" height="26" as="alternateBounds" />
            </mxGeometry>
          </mxCell>
        </object>
        <mxCell id="jIY0R9k1WC5agwst_tWj-58" value="- Energieverbrauch : int" style="text;strokeColor=none;fillColor=none;align=left;verticalAlign=top;spacingLeft=4;spacingRight=4;overflow=hidden;rotatable=0;points=[[0,0.5],[1,0.5]];portConstraint=eastwest;" vertex="1" parent="jIY0R9k1WC5agwst_tWj-57">
          <mxGeometry y="26" width="250" height="104" as="geometry" />
        </mxCell>
        <mxCell id="jIY0R9k1WC5agwst_tWj-59" value="" style="line;strokeWidth=1;fillColor=none;align=left;verticalAlign=middle;spacingTop=-1;spacingLeft=3;spacingRight=3;rotatable=0;labelPosition=right;points=[];portConstraint=eastwest;" vertex="1" parent="jIY0R9k1WC5agwst_tWj-57">
          <mxGeometry y="130" width="250" height="8" as="geometry" />
        </mxCell>
        <mxCell id="jIY0R9k1WC5agwst_tWj-60" value="+" style="text;strokeColor=none;fillColor=none;align=left;verticalAlign=top;spacingLeft=4;spacingRight=4;overflow=hidden;rotatable=0;points=[[0,0.5],[1,0.5]];portConstraint=eastwest;" vertex="1" parent="jIY0R9k1WC5agwst_tWj-57">
          <mxGeometry y="138" width="250" height="32" as="geometry" />
        </mxCell>
        <object label="Anlagen" id="jIY0R9k1WC5agwst_tWj-62">
          <mxCell style="swimlane;fontStyle=1;align=center;verticalAlign=top;childLayout=stackLayout;horizontal=1;startSize=26;horizontalStack=0;resizeParent=1;resizeParentMax=0;resizeLast=0;collapsible=1;marginBottom=0;" vertex="1" parent="1">
            <mxGeometry x="330" y="560" width="250" height="170" as="geometry">
              <mxRectangle x="425" y="120" width="100" height="26" as="alternateBounds" />
            </mxGeometry>
          </mxCell>
        </object>
        <mxCell id="jIY0R9k1WC5agwst_tWj-63" value="-" style="text;strokeColor=none;fillColor=none;align=left;verticalAlign=top;spacingLeft=4;spacingRight=4;overflow=hidden;rotatable=0;points=[[0,0.5],[1,0.5]];portConstraint=eastwest;" vertex="1" parent="jIY0R9k1WC5agwst_tWj-62">
          <mxGeometry y="26" width="250" height="104" as="geometry" />
        </mxCell>
        <mxCell id="jIY0R9k1WC5agwst_tWj-64" value="" style="line;strokeWidth=1;fillColor=none;align=left;verticalAlign=middle;spacingTop=-1;spacingLeft=3;spacingRight=3;rotatable=0;labelPosition=right;points=[];portConstraint=eastwest;" vertex="1" parent="jIY0R9k1WC5agwst_tWj-62">
          <mxGeometry y="130" width="250" height="8" as="geometry" />
        </mxCell>
        <mxCell id="jIY0R9k1WC5agwst_tWj-65" value="+" style="text;strokeColor=none;fillColor=none;align=left;verticalAlign=top;spacingLeft=4;spacingRight=4;overflow=hidden;rotatable=0;points=[[0,0.5],[1,0.5]];portConstraint=eastwest;" vertex="1" parent="jIY0R9k1WC5agwst_tWj-62">
          <mxGeometry y="138" width="250" height="32" as="geometry" />
        </mxCell>
        <mxCell id="jIY0R9k1WC5agwst_tWj-66" value="" style="edgeStyle=orthogonalEdgeStyle;rounded=0;orthogonalLoop=1;jettySize=auto;html=1;startArrow=block;startFill=0;endArrow=none;endFill=0;entryX=0.5;entryY=0;entryDx=0;entryDy=0;exitX=0.43;exitY=1.003;exitDx=0;exitDy=0;exitPerimeter=0;" edge="1" parent="1" source="jIY0R9k1WC5agwst_tWj-75" target="jIY0R9k1WC5agwst_tWj-62">
          <mxGeometry relative="1" as="geometry">
            <mxPoint x="540" y="520" as="sourcePoint" />
            <mxPoint x="570" y="602" as="targetPoint" />
          </mxGeometry>
        </mxCell>
        <object label="Verteidigung" id="jIY0R9k1WC5agwst_tWj-78">
          <mxCell style="swimlane;fontStyle=1;align=center;verticalAlign=top;childLayout=stackLayout;horizontal=1;startSize=26;horizontalStack=0;resizeParent=1;resizeParentMax=0;resizeLast=0;collapsible=1;marginBottom=0;" vertex="1" parent="1">
            <mxGeometry x="40" y="560" width="250" height="170" as="geometry">
              <mxRectangle x="425" y="120" width="100" height="26" as="alternateBounds" />
            </mxGeometry>
          </mxCell>
        </object>
        <mxCell id="jIY0R9k1WC5agwst_tWj-79" value="-" style="text;strokeColor=none;fillColor=none;align=left;verticalAlign=top;spacingLeft=4;spacingRight=4;overflow=hidden;rotatable=0;points=[[0,0.5],[1,0.5]];portConstraint=eastwest;" vertex="1" parent="jIY0R9k1WC5agwst_tWj-78">
          <mxGeometry y="26" width="250" height="104" as="geometry" />
        </mxCell>
        <mxCell id="jIY0R9k1WC5agwst_tWj-80" value="" style="line;strokeWidth=1;fillColor=none;align=left;verticalAlign=middle;spacingTop=-1;spacingLeft=3;spacingRight=3;rotatable=0;labelPosition=right;points=[];portConstraint=eastwest;" vertex="1" parent="jIY0R9k1WC5agwst_tWj-78">
          <mxGeometry y="130" width="250" height="8" as="geometry" />
        </mxCell>
        <mxCell id="jIY0R9k1WC5agwst_tWj-81" value="+ bauen(anzahl : int) : bool" style="text;strokeColor=none;fillColor=none;align=left;verticalAlign=top;spacingLeft=4;spacingRight=4;overflow=hidden;rotatable=0;points=[[0,0.5],[1,0.5]];portConstraint=eastwest;" vertex="1" parent="jIY0R9k1WC5agwst_tWj-78">
          <mxGeometry y="138" width="250" height="32" as="geometry" />
        </mxCell>
        <mxCell id="jIY0R9k1WC5agwst_tWj-82" value="" style="edgeStyle=orthogonalEdgeStyle;rounded=0;orthogonalLoop=1;jettySize=auto;html=1;startArrow=block;startFill=0;endArrow=none;endFill=0;exitX=0.572;exitY=0.99;exitDx=0;exitDy=0;exitPerimeter=0;entryX=0.5;entryY=0;entryDx=0;entryDy=0;" edge="1" parent="1" source="jIY0R9k1WC5agwst_tWj-91" target="jIY0R9k1WC5agwst_tWj-78">
          <mxGeometry relative="1" as="geometry">
            <mxPoint x="920" y="486" as="sourcePoint" />
            <mxPoint x="1040" y="560" as="targetPoint" />
          </mxGeometry>
        </mxCell>
        <object label="Schiff" id="jIY0R9k1WC5agwst_tWj-83">
          <mxCell style="swimlane;fontStyle=1;align=center;verticalAlign=top;childLayout=stackLayout;horizontal=1;startSize=26;horizontalStack=0;resizeParent=1;resizeParentMax=0;resizeLast=0;collapsible=1;marginBottom=0;" vertex="1" parent="1">
            <mxGeometry x="-220" y="560" width="250" height="170" as="geometry">
              <mxRectangle x="425" y="120" width="100" height="26" as="alternateBounds" />
            </mxGeometry>
          </mxCell>
        </object>
        <mxCell id="jIY0R9k1WC5agwst_tWj-84" value="- inEinsatz : int" style="text;strokeColor=none;fillColor=none;align=left;verticalAlign=top;spacingLeft=4;spacingRight=4;overflow=hidden;rotatable=0;points=[[0,0.5],[1,0.5]];portConstraint=eastwest;" vertex="1" parent="jIY0R9k1WC5agwst_tWj-83">
          <mxGeometry y="26" width="250" height="104" as="geometry" />
        </mxCell>
        <mxCell id="jIY0R9k1WC5agwst_tWj-85" value="" style="line;strokeWidth=1;fillColor=none;align=left;verticalAlign=middle;spacingTop=-1;spacingLeft=3;spacingRight=3;rotatable=0;labelPosition=right;points=[];portConstraint=eastwest;" vertex="1" parent="jIY0R9k1WC5agwst_tWj-83">
          <mxGeometry y="130" width="250" height="8" as="geometry" />
        </mxCell>
        <mxCell id="jIY0R9k1WC5agwst_tWj-86" value="+ bauen(anzahl : int) : bool" style="text;strokeColor=none;fillColor=none;align=left;verticalAlign=top;spacingLeft=4;spacingRight=4;overflow=hidden;rotatable=0;points=[[0,0.5],[1,0.5]];portConstraint=eastwest;" vertex="1" parent="jIY0R9k1WC5agwst_tWj-83">
          <mxGeometry y="138" width="250" height="32" as="geometry" />
        </mxCell>
        <object label="Fleet" id="jIY0R9k1WC5agwst_tWj-88">
          <mxCell style="swimlane;fontStyle=1;align=center;verticalAlign=top;childLayout=stackLayout;horizontal=1;startSize=26;horizontalStack=0;resizeParent=1;resizeParentMax=0;resizeLast=0;collapsible=1;marginBottom=0;" vertex="1" parent="1">
            <mxGeometry x="20" y="270" width="250" height="242" as="geometry">
              <mxRectangle x="425" y="120" width="100" height="26" as="alternateBounds" />
            </mxGeometry>
          </mxCell>
        </object>
        <mxCell id="jIY0R9k1WC5agwst_tWj-89" value="- Anzahl : int&#xa;- kostenMetall : int&#xa;- kostenKristall : int&#xa;- kostenDeut : int&#xa;- pfad : str" style="text;strokeColor=none;fillColor=none;align=left;verticalAlign=top;spacingLeft=4;spacingRight=4;overflow=hidden;rotatable=0;points=[[0,0.5],[1,0.5]];portConstraint=eastwest;" vertex="1" parent="jIY0R9k1WC5agwst_tWj-88">
          <mxGeometry y="26" width="250" height="104" as="geometry" />
        </mxCell>
        <mxCell id="jIY0R9k1WC5agwst_tWj-90" value="" style="line;strokeWidth=1;fillColor=none;align=left;verticalAlign=middle;spacingTop=-1;spacingLeft=3;spacingRight=3;rotatable=0;labelPosition=right;points=[];portConstraint=eastwest;" vertex="1" parent="jIY0R9k1WC5agwst_tWj-88">
          <mxGeometry y="130" width="250" height="8" as="geometry" />
        </mxCell>
        <mxCell id="jIY0R9k1WC5agwst_tWj-91" value="+ Methods" style="text;strokeColor=none;fillColor=none;align=left;verticalAlign=top;spacingLeft=4;spacingRight=4;overflow=hidden;rotatable=0;points=[[0,0.5],[1,0.5]];portConstraint=eastwest;" vertex="1" parent="jIY0R9k1WC5agwst_tWj-88">
          <mxGeometry y="138" width="250" height="104" as="geometry" />
        </mxCell>
        <mxCell id="jIY0R9k1WC5agwst_tWj-92" value="" style="edgeStyle=orthogonalEdgeStyle;rounded=0;orthogonalLoop=1;jettySize=auto;html=1;startArrow=block;startFill=0;endArrow=none;endFill=0;exitX=0.436;exitY=1.01;exitDx=0;exitDy=0;exitPerimeter=0;" edge="1" parent="1" source="jIY0R9k1WC5agwst_tWj-91" target="jIY0R9k1WC5agwst_tWj-83">
          <mxGeometry relative="1" as="geometry">
            <mxPoint x="173" y="480.96000000000004" as="sourcePoint" />
            <mxPoint x="175" y="570" as="targetPoint" />
          </mxGeometry>
        </mxCell>
        <mxCell id="jIY0R9k1WC5agwst_tWj-94" value="1" style="edgeStyle=orthogonalEdgeStyle;rounded=0;orthogonalLoop=1;jettySize=auto;html=1;startArrow=block;startFill=1;endArrow=block;endFill=1;exitX=0.412;exitY=1.063;exitDx=0;exitDy=0;exitPerimeter=0;entryX=0.5;entryY=0;entryDx=0;entryDy=0;" edge="1" parent="1" source="jIY0R9k1WC5agwst_tWj-39" target="jIY0R9k1WC5agwst_tWj-88">
          <mxGeometry x="-0.6" relative="1" as="geometry">
            <mxPoint x="130" y="200" as="sourcePoint" />
            <mxPoint x="475" y="349" as="targetPoint" />
            <mxPoint as="offset" />
            <Array as="points">
              <mxPoint x="145" y="240" />
            </Array>
          </mxGeometry>
        </mxCell>
        <mxCell id="jIY0R9k1WC5agwst_tWj-95" value="m" style="text;html=1;align=center;verticalAlign=middle;resizable=0;points=[];labelBackgroundColor=#ffffff;" vertex="1" connectable="0" parent="jIY0R9k1WC5agwst_tWj-94">
          <mxGeometry x="0.6" y="-1" relative="1" as="geometry">
            <mxPoint as="offset" />
          </mxGeometry>
        </mxCell>
      </root>
    </mxGraphModel>
  </diagram>
</mxfile>
